<svg version="1.1" id="Layer_1" xmlns="http://www.w3.org/2000/svg" xmlns:xlink="http://www.w3.org/1999/xlink" x="0px" y="0px"
	 viewBox="0 0 43 43" enable-background="new 0 0 43 43" xml:space="preserve">

	<path d="M0,5c0,2.761,2.239,5,5,5h33c2.761,0,5-2.239,5-5s-2.239-5-5-5H5C2.239,0,0,2.239,0,5C0,5,0,2.239,0,5z" fill="#fff" />

	<path d="M0,38c0,2.761,2.239,5,5,5h33c2.761,0,5-2.239,5-5s-2.239-5-5-5H5C2.239,33,0,35.239,0,38C0,38,0,35.239,0,38z" fill="#fff" />

	<path d="M0,21.5c0,2.761,2.239,5,5,5h33c2.761,0,5-2.239,5-5s-2.239-5-5-5H5C2.239,16.5,0,18.739,0,21.5C0,21.5,0,18.739,0,21.5z" fill="#fff" />

</svg>
