<svg id="Layer_1" data-name="Layer 1" xmlns="http://www.w3.org/2000/svg" viewBox="0 0 366.95 79.43"><defs><style>.cls-1{fill:#383939;}.cls-2{fill:#686868;}.cls-3{fill:#db6d3c;}</style></defs><title>TinderBox-Logo-Dark</title><path class="cls-1" d="M50.44,30.89a8.75,8.75,0,0,0-8.75-8.74H8.75A8.75,8.75,0,0,0,0,30.89v5.26H9.31V32.67a1.62,1.62,0,0,1,1.78-1.78h8.83V70.78H16.45v8.66H34V70.77H30.52V30.89h8.83a1.62,1.62,0,0,1,1.78,1.78v3.48h9.31V30.89Z"/><path class="cls-1" d="M114,70.77A1.62,1.62,0,0,1,112.19,69V46.88a8.75,8.75,0,0,0-8.75-8.75H96.18a8.75,8.75,0,0,0-8.7,7.8H87.38a8.75,8.75,0,0,0-8.69-7.8H72.2v8.74h3.24a1.58,1.58,0,0,1,1.78,1.78V79.43h10.2V48.62a1.58,1.58,0,0,1,1.78-1.78h11A1.58,1.58,0,0,1,102,48.62V70.69a8.75,8.75,0,0,0,8.75,8.75h5.6l1.24-8.66H114Z"/><path class="cls-1" d="M158.61,70.77A1.58,1.58,0,0,1,156.83,69V30.89a8.75,8.75,0,0,0-8.75-8.74h-6.48v8.74h3.24a1.58,1.58,0,0,1,1.78,1.78v5.47H130a8.75,8.75,0,0,0-8.75,8.75v23.8A8.75,8.75,0,0,0,130,79.43h7.83a8.75,8.75,0,0,0,8.69-7.8h0.11a8.75,8.75,0,0,0,8.7,7.8H161l1.24-8.66h-3.59Zm-12-1.78a1.58,1.58,0,0,1-1.78,1.78H133.27A1.58,1.58,0,0,1,131.49,69V48.62a1.58,1.58,0,0,1,1.78-1.78h13.36V69Z"/><path class="cls-1" d="M69.81,70.77v8.66H52.68V70.78h3.46V48.62a1.58,1.58,0,0,0-1.78-1.78H52.55v-8.7h5a8.71,8.71,0,0,1,8.75,8.7V70.77h3.46ZM66.34,22.14H56.14v10.2h10.2V22.14Z"/><path class="cls-1" d="M229.54,38.14a8.75,8.75,0,0,0-8.7,7.8h-0.11a8.75,8.75,0,0,0-8.69-7.8h-6.48v8.74h3.24a1.58,1.58,0,0,1,1.78,1.78v22.1h-3.34v8.66h16.53V70.77h-3V48.66a1.58,1.58,0,0,1,1.78-1.78h13.51l1.24-8.75h-7.76Z"/><path class="cls-1" d="M191.6,38.14H175.05a8.75,8.75,0,0,0-8.75,8.75v23.8a8.75,8.75,0,0,0,8.75,8.75H198.3l1.59-8.66h-21.6A1.58,1.58,0,0,1,176.51,69V63.79H191.6A8.75,8.75,0,0,0,200.35,55V46.88A8.75,8.75,0,0,0,191.6,38.14Zm-1.45,15.13A1.58,1.58,0,0,1,188.37,55H176.51V48.62a1.58,1.58,0,0,1,1.78-1.78h10.08a1.58,1.58,0,0,1,1.78,1.78v4.65Z"/><path class="cls-2" d="M273.45,49.25V49.14c4,0,7.8-3.72,7.8-8.69V30.88a8.74,8.74,0,0,0-8.75-8.74H237.77V30.8h5v40h-5v8.66h36.09a8.74,8.74,0,0,0,8.75-8.74V57.95C282.6,51.95,277.88,49.25,273.45,49.25Zm-20-18.44h15.87A1.59,1.59,0,0,1,271,32.59V43.06a1.58,1.58,0,0,1-1.78,1.78H253.4v-14ZM272.4,69a1.58,1.58,0,0,1-1.78,1.78H253.4V53.54h17.23a1.59,1.59,0,0,1,1.78,1.78V69Z"/><path class="cls-2" d="M362.79,70.73a2.56,2.56,0,0,1-2.44-1.14l-7.52-11.35,13.3-20.11H354.24L347,49.35l-4.49-7.12a9.13,9.13,0,0,0-7.4-4.09h-6.7v8.7h3.74A2.57,2.57,0,0,1,334.63,48l6.7,10.1L327.22,79.43H339.1l8-12.43,5.3,8.34a9.13,9.13,0,0,0,7.4,4.09h5.89l1.24-8.7h-4.16Z"/><path class="cls-2" d="M315.27,38.16a23.74,23.74,0,0,1-7.84,3.94,12.17,12.17,0,0,1-1.53.94,4.67,4.67,0,0,0-.12-0.68,24.5,24.5,0,0,1-8.67-4.21,8.74,8.74,0,0,0-8.48,8.73v23.8a8.75,8.75,0,0,0,8.75,8.75h17.48a8.74,8.74,0,0,0,8.75-8.75V46.88A8.74,8.74,0,0,0,315.27,38.16ZM313.4,69a1.58,1.58,0,0,1-1.78,1.78h-11A1.58,1.58,0,0,1,298.83,69V48.62a1.58,1.58,0,0,1,1.78-1.78h11a1.58,1.58,0,0,1,1.78,1.78V69Z"/><path class="cls-3" d="M320.55,26.11c-0.68-7.86-3.88-11-3.88-11a10.84,10.84,0,0,1-1.75,4.31,9.88,9.88,0,0,1-3.49,3.29s3.09-5.37.32-13.86A12.82,12.82,0,0,0,301.44,0a5.68,5.68,0,0,1,2.31,4.94c0,9.41-10.44,10.92-11.62,21.76-1.24,11.39,11.48,15.12,13.65,15.67a10.89,10.89,0,0,0-1.56-3.42c-1.54-2.32-4.57-3.68-4.57-9.38,0-6.38,5.82-8.79,5.82-8.79a7.06,7.06,0,0,0,1,4.82c1.77,2.5,5.61,2.52,5.61,8.63,0,4-2.8,6.59-4.62,7.88C311.17,41,321.5,37,320.55,26.11Z"/></svg>