<svg xmlns="http://www.w3.org/2000/svg" version="1.1" id="Layer_1" x="0" y="0" viewBox="0 0 366.95 79.43" enable-background="new 0 0 366.949 79.434" xml:space="preserve"><path fill="#FFFFFF" d="M50.44 36.15h-9.31v-3.48c0-1.13-0.65-1.78-1.78-1.78h-8.83V70.77h3.46v8.66H16.45v-8.66h3.46v-39.89h-8.83c-1.13 0-1.78 0.65-1.78 1.78v3.48H0v-5.26c0-4.83 3.92-8.74 8.75-8.74h32.95c4.83 0 8.75 3.92 8.75 8.74C50.44 33.17 50.44 36.15 50.44 36.15zM113.97 70.77c-1.13 0-1.78-0.65-1.78-1.78V46.88c0-4.83-3.92-8.74-8.75-8.74h-7.26c-4.51 0-8.22 3.42-8.69 7.8h-0.11c-0.47-4.39-4.18-7.8-8.69-7.8l-6.48 0v8.74h3.24c1.13 0 1.78 0.57 1.78 1.78v30.77H87.42V48.62c0-1.22 0.65-1.78 1.78-1.78h11.01c1.13 0 1.78 0.56 1.78 1.78v22.07c0 4.83 3.92 8.74 8.75 8.74h5.6l1.24-8.66L113.97 70.77 113.97 70.77zM162.21 70.77l-1.24 8.66 -5.6 0c-4.51 0-8.22-3.42-8.69-7.8h-0.11c-0.47 4.39-4.18 7.8-8.69 7.8h-7.83c-4.83 0-8.75-3.92-8.75-8.74V46.88c0-4.83 3.92-8.74 8.75-8.74l16.59 0v-5.47c0-1.21-0.65-1.78-1.78-1.78h-3.24v-8.74h6.48c4.83 0 8.75 3.92 8.75 8.74v38.1c0 1.22 0.65 1.78 1.78 1.78H162.21zM146.63 46.84h-13.36c-1.13 0-1.78 0.56-1.78 1.78v20.37c0 1.22 0.65 1.78 1.78 1.78h11.57c1.13 0 1.78-0.56 1.78-1.78V46.84zM66.34 70.77V46.84c0-4.83-3.91-8.7-8.75-8.7h-5.05v8.7h1.81c1.13 0 1.78 0.56 1.78 1.78v22.16h-3.46v8.66h17.13v-8.66H66.34zM66.34 32.34H56.14V22.14h10.2V32.34zM229.54 38.14c-4.51 0-8.22 3.42-8.7 7.8h-0.11c-0.47-4.39-4.18-7.8-8.69-7.8l-6.48 0v8.74h3.24c1.13 0 1.78 0.57 1.78 1.78v22.1h-3.34v8.66h16.53v-8.66h-2.99V48.66c0-1.22 0.65-1.78 1.78-1.78h13.51l1.24-8.74H229.54zM200.35 46.89v8.16c0 4.83-3.91 8.74-8.75 8.74l-15.09 0v5.19c0 1.22 0.65 1.78 1.78 1.78h21.6l-1.59 8.66 -23.24 0c-4.83 0-8.75-3.92-8.75-8.74V46.88c0-4.83 3.92-8.74 8.75-8.74h16.54C196.43 38.14 200.35 42.06 200.35 46.89zM190.15 48.62c0-1.22-0.65-1.78-1.78-1.78h-10.08c-1.13 0-1.78 0.56-1.78 1.78v6.43h11.86c1.13 0 1.78-0.57 1.78-1.78V48.62zM282.6 57.95v12.74c0 4.83-3.91 8.74-8.75 8.74h-36.09v-8.66h5.02V30.81h-5.02v-8.66h34.73c4.83 0 8.75 3.92 8.75 8.74l0 9.56c0 4.97-3.79 8.69-7.8 8.69v0.11C277.88 49.25 282.6 51.95 282.6 57.95zM253.4 44.85h15.87c1.13 0 1.78-0.57 1.78-1.78V32.59c0-1.22-0.65-1.78-1.78-1.78h-15.87V44.85zM272.4 55.32c0-1.22-0.65-1.78-1.78-1.78h-17.23v17.23h17.23c1.13 0 1.78-0.56 1.78-1.78V55.32zM362.79 70.74c-1.37 0-1.96-0.44-2.44-1.14l-7.52-11.35 13.3-20.11h-11.88l-7.2 11.21 -4.49-7.12c-1.55-2.46-4.57-4.09-7.4-4.09h-6.7v8.7h3.74c1.37 0 1.96 0.45 2.44 1.14l6.7 10.1 -14.11 21.36h11.88L347.12 67l5.3 8.34c1.55 2.46 4.57 4.09 7.4 4.09h5.89l1.24-8.7H362.79zM323.6 46.88v23.8c0 4.83-3.91 8.74-8.74 8.74H297.38c-4.83 0-8.75-3.92-8.75-8.74V46.88c0-4.74 3.77-8.59 8.48-8.73 3.43 2.74 7.53 3.92 8.67 4.21 0.1 0.43 0.12 0.68 0.12 0.68s0.65-0.32 1.53-0.94c1.77-0.52 5.01-1.69 7.84-3.94C319.91 38.38 323.6 42.2 323.6 46.88zM313.4 48.62c0-1.22-0.65-1.78-1.78-1.78h-11.01c-1.13 0-1.78 0.56-1.78 1.78v20.33c0 1.22 0.65 1.78 1.78 1.78h11.01c1.13 0 1.78-0.56 1.78-1.78V48.62zM320.56 26.12c-0.68-7.86-3.88-11.03-3.88-11.03s-0.29 2.23-1.74 4.31c-1.74 2.49-3.49 3.29-3.49 3.29s3.09-5.37 0.32-13.86C309.13 0.77 301.44 0 301.44 0s2.31 1.38 2.31 4.94c0 9.41-10.44 10.93-11.62 21.76 -1.24 11.39 11.48 15.12 13.65 15.67 -0.17-0.72-0.59-1.95-1.56-3.42 -1.54-2.32-4.57-3.68-4.57-9.38 0-6.38 5.82-8.79 5.82-8.79s-0.5 2.74 0.97 4.82c1.77 2.5 5.61 2.52 5.61 8.63 0 3.95-2.8 6.59-4.62 7.88C311.18 41 321.5 36.98 320.56 26.12z"/></svg>